<svg viewBox="0 0 800 600" xmlns="http://www.w3.org/2000/svg">
  <!-- Styles -->
  <style>
    .module { fill: #e6f2ff; stroke: #0066cc; stroke-width: 2; }
    .arrow { stroke: #333; stroke-width: 2; marker-end: url(#arrowhead); }
    .label { font-family: Arial; font-size: 12px; text-anchor: middle; }
    .module-title { font-family: Arial; font-size: 14px; font-weight: bold; text-anchor: middle; }
    .component { fill: #f9f9f9; stroke: #666; stroke-width: 1; }
    .data-box { fill: #fffacd; stroke: #daa520; stroke-width: 1.5; }
    .small-text { font-family: Arial; font-size: 10px; }
  </style>
  
  <!-- Arrow marker definition -->
  <defs>
    <marker id="arrowhead" markerWidth="10" markerHeight="7" refX="9" refY="3.5" orient="auto">
      <polygon points="0 0, 10 3.5, 0 7" fill="#333" />
    </marker>
  </defs>
  
  <!-- Input -->
  <rect x="350" y="20" width="100" height="40" class="data-box" rx="5" ry="5" />
  <text x="400" y="45" class="module-title">Input Image</text>
  <text x="400" y="60" class="small-text">(B, 3, 32, 32)</text>
  
  <!-- Encoder Module -->
  <rect x="250" y="90" width="300" height="120" class="module" rx="10" ry="10" />
  <text x="400" y="110" class="module-title">Encoder</text>
  
  <!-- Encoder Components -->
  <rect x="270" y="120" width="80" height="30" class="component" rx="5" ry="5" />
  <text x="310" y="140" class="label">Conv Layers</text>
  
  <rect x="360" y="120" width="80" height="30" class="component" rx="5" ry="5" />
  <text x="400" y="140" class="label">Token Proj</text>
  
  <rect x="450" y="120" width="80" height="30" class="component" rx="5" ry="5" />
  <text x="490" y="140" class="label">Self-Attention</text>
  
  <text x="400" y="175" class="small-text">Output: Tokens (B, N, token_dim)</text>
  
  <!-- Graph Construction Module -->
  <rect x="250" y="240" width="300" height="80" class="module" rx="10" ry="10" />
  <text x="400" y="260" class="module-title">Graph Construction Module</text>
  <text x="400" y="280" class="label">k-Nearest Neighbors (k=8)</text>
  <text x="400" y="300" class="small-text">Output: Graph Data (nodes, edges)</text>
  
  <!-- GNN Router Module -->
  <rect x="90" y="350" width="220" height="120" class="module" rx="10" ry="10" />
  <text x="200" y="370" class="module-title">GNN Router</text>
  
  <!-- Router Components -->
  <rect x="110" y="380" width="80" height="30" class="component" rx="5" ry="5" />
  <text x="150" y="400" class="label">GCNConv</text>
  
  <rect x="200" y="380" width="80" height="30" class="component" rx="5" ry="5" />
  <text x="240" y="400" class="label">LIF Cell</text>
  
  <rect x="150" y="420" width="100" height="30" class="component" rx="5" ry="5" />
  <text x="200" y="440" class="label">Routing Signal</text>
  
  <!-- Expert Modules -->
  <rect x="490" y="350" width="220" height="120" class="module" rx="10" ry="10" />
  <text x="600" y="370" class="module-title">Expert Networks</text>
  
  <!-- Expert Components -->
  <rect x="510" y="390" width="50" height="50" class="component" rx="5" ry="5" />
  <text x="535" y="420" class="label">Expert 1</text>
  
  <rect x="575" y="390" width="50" height="50" class="component" rx="5" ry="5" />
  <text x="600" y="420" class="label">Expert 2</text>
  
  <rect x="640" y="390" width="50" height="50" class="component" rx="5" ry="5" />
  <text x="665" y="420" class="label">Expert 3</text>
  
  <!-- Aggregator Module -->
  <rect x="300" y="500" width="200" height="60" class="module" rx="10" ry="10" />
  <text x="400" y="525" class="module-title">Aggregator</text>
  <text x="400" y="545" class="label">Weighted sum of expert outputs</text>
  
  <!-- Output -->
  <rect x="350" y="580" width="100" height="40" class="data-box" rx="5" ry="5" />
  <text x="400" y="605" class="module-title">Output</text>
  <text x="400" y="620" class="small-text">(B, num_classes)</text>
  
  <!-- Connecting arrows -->
  <!-- Input to Encoder -->
  <line x1="400" y1="60" x2="400" y2="90" class="arrow" />
  
  <!-- Encoder to Graph Construction -->
  <line x1="400" y1="210" x2="400" y2="240" class="arrow" />
  
  <!-- Graph Construction to Router -->
  <path d="M 400 320 C 400 335 200 335 200 350" class="arrow" fill="none" />
  
  <!-- Encoder to Experts (for pooled tokens) -->
  <path d="M 400 210 C 400 230 600 230 600 350" class="arrow" fill="none" />
  
  <!-- Router to Aggregator -->
  <path d="M 200 470 C 200 485 400 485 400 500" class="arrow" fill="none" />
  
  <!-- Experts to Aggregator -->
  <path d="M 600 470 C 600 485 400 485 400 500" class="arrow" fill="none" />
  
  <!-- Aggregator to Output -->
  <line x1="400" y1="560" x2="400" y2="580" class="arrow" />
</svg>
